<?xml version="1.0" ?><svg id="Layer_1" style="enable-background:new 0 0 512 512;" version="1.1" viewBox="0 0 512 512" xml:space="preserve" xmlns="http://www.w3.org/2000/svg" xmlns:xlink="http://www.w3.org/1999/xlink"><style type="text/css">
	.st0{fill:#69C9C9;}
	.st1{fill:#4D5152;}
</style><path class="st0" d="M405.4,181.3l16.5-9.5c11.6,22.9,18.4,48.1,19.8,74.2h-19v20h19c-1.4,26.2-8.2,51.4-19.8,74.2l-16.5-9.5  l-10,17.3l16.5,9.5c-7,10.7-15.1,20.7-24.4,30c-9.2,9.2-19.3,17.4-30,24.4l-9.5-16.5l-17.3,10l9.5,16.5  c-22.9,11.6-48.1,18.4-74.2,19.8v-19h-20v19c-26.2-1.4-51.4-8.2-74.2-19.8l9.5-16.5l-17.3-10l-9.5,16.5c-10.7-7-20.7-15.1-30-24.4  c-9.2-9.2-17.4-19.3-24.4-30l16.5-9.5l-10-17.3l-16.5,9.5c-11.6-22.9-18.4-48.1-19.8-74.2h19v-20h-19c1.4-26.2,8.2-51.4,19.8-74.2  l16.5,9.5l10-17.3l-16.5-9.5c7-10.7,15.1-20.7,24.4-30c9.2-9.2,19.3-17.4,30-24.4l9.5,16.5l17.3-10l-9.5-16.5  c22.9-11.6,48.1-18.4,74.2-19.8v19h20v-19c26.2,1.4,51.4,8.2,74.2,19.8l-9.5,16.5l17.3,10l9.5-16.5c10.7,7,20.7,15.1,30,24.4  c9.2,9.2,17.4,19.3,24.4,30l-16.5,9.5L405.4,181.3z"/><g><path class="st1" d="M401.7,110.3C362.8,71.4,311,50,256,50c-55,0-106.8,21.4-145.7,60.3C71.4,149.2,50,201,50,256   c0,55,21.4,106.8,60.3,145.7C149.2,440.6,201,462,256,462c55,0,106.8-21.4,145.7-60.3S462,311,462,256   C462,201,440.6,149.2,401.7,110.3z M421.9,340.2l-16.5-9.5l-10,17.3l16.5,9.5c-7,10.7-15.1,20.7-24.4,30   c-9.2,9.2-19.3,17.4-30,24.4l-9.5-16.5l-17.3,10l9.5,16.5c-22.9,11.6-48.1,18.4-74.2,19.8v-19h-20v19c-26.2-1.4-51.4-8.2-74.2-19.8   l9.5-16.5l-17.3-10l-9.5,16.5c-10.7-7-20.7-15.1-30-24.4c-9.2-9.2-17.4-19.3-24.4-30l16.5-9.5l-10-17.3l-16.5,9.5   c-11.6-22.9-18.4-48.1-19.8-74.2h19v-20h-19c1.4-26.2,8.2-51.4,19.8-74.2l16.5,9.5l10-17.3l-16.5-9.5c7-10.7,15.1-20.7,24.4-30   c9.2-9.2,19.3-17.4,30-24.4l9.5,16.5l17.3-10l-9.5-16.5c22.9-11.6,48.1-18.4,74.2-19.8v19h20v-19c26.2,1.4,51.4,8.2,74.2,19.8   l-9.5,16.5l17.3,10l9.5-16.5c10.7,7,20.7,15.1,30,24.4c9.2,9.2,17.4,19.3,24.4,30l-16.5,9.5l10,17.3l16.5-9.5   c11.6,22.9,18.4,48.1,19.8,74.2h-19v20h19C440.4,292.2,433.6,317.4,421.9,340.2z"/><rect class="st1" height="20" width="20" x="246" y="146.9"/><polygon class="st1" points="266,186.9 246,186.9 246,260.1 305.4,319.5 319.5,305.4 266,251.9  "/><path class="st1" d="M30,256c0-60.4,23.5-117.1,66.2-159.8C138.9,53.5,195.6,30,256,30c50.7,0,98.5,16.3,138.2,47.1l12.3-15.8   C363.2,27.8,311.2,10,256,10c-65.7,0-127.5,25.6-173.9,72.1C35.6,128.5,10,190.3,10,256c0,55.2,17.8,107.2,51.3,150.5l15.8-12.3   C46.3,354.5,30,306.7,30,256z"/><path class="st1" d="M89.6,408.9l-14.7,13.5c2.3,2.5,4.8,5.1,7.2,7.5c2.5,2.5,5,4.9,7.5,7.2l13.5-14.7c-2.3-2.1-4.7-4.4-6.9-6.6   C93.9,413.6,91.7,411.2,89.6,408.9z"/><path class="st1" d="M450.7,105.5l-15.8,12.3C465.7,157.5,482,205.3,482,256c0,60.4-23.5,117.1-66.2,159.8   C373.1,458.5,316.4,482,256,482c-50.7,0-98.5-16.3-138.2-47.1l-12.3,15.8C148.8,484.2,200.8,502,256,502   c65.7,0,127.5-25.6,173.9-72.1C476.4,383.5,502,321.7,502,256C502,200.8,484.2,148.8,450.7,105.5z"/><path class="st1" d="M422.4,103.1l14.7-13.5c-2.3-2.5-4.8-5.1-7.2-7.5c-2.4-2.4-5-4.9-7.5-7.2l-13.5,14.7c2.3,2.2,4.7,4.4,6.9,6.6   C418.1,98.5,420.3,100.8,422.4,103.1z"/></g></svg>